<svg width="1024" height="1024" viewBox="0 0 1024 1024" fill="none" xmlns="http://www.w3.org/2000/svg">
    <rect x="22" y="22" width="980" height="980" rx="200" fill="#6F4E37" />
    <rect x="22" y="22" width="980" height="980" rx="200" fill="url(#paint0_linear_29_4)" />
    <g filter="url(#filter0_d_29_4)">
        <!-- Coffee cup body -->
        <path
            d="M320 320L340 640C340 660 355 675 375 675L625 675C645 675 660 660 660 640L680 320Z"
            fill="white"
            stroke="none"/>
        <!-- Coffee cup handle -->
        <path
            d="M680 420C680 420 720 420 740 440C760 460 760 500 740 520C720 540 680 540 680 540"
            fill="none"
            stroke="white"
            stroke-width="40"
            stroke-linecap="round"/>
        <!-- Coffee liquid -->
        <path
            d="M350 380L365 620C365 630 372 637 382 637L618 637C628 637 635 630 635 620L650 380Z"
            fill="#4A3426"
            stroke="none"/>
        <!-- Steam lines -->
        <path
            d="M420 280Q415 240 420 200"
            fill="none"
            stroke="white"
            stroke-width="20"
            stroke-linecap="round"
            opacity="0.8"/>
        <path
            d="M500 280Q495 240 500 200"
            fill="none"
            stroke="white"
            stroke-width="20"
            stroke-linecap="round"
            opacity="0.8"/>
        <path
            d="M580 280Q575 240 580 200"
            fill="none"
            stroke="white"
            stroke-width="20"
            stroke-linecap="round"
            opacity="0.8"/>
    </g>
    <defs>
        <filter id="filter0_d_29_4" x="221.427" y="219.8" width="580.9" height="619.15" filterUnits="userSpaceOnUse"
            color-interpolation-filters="sRGB">
            <feFlood flood-opacity="0" result="BackgroundImageFix" />
            <feColorMatrix in="SourceAlpha" type="matrix" values="0 0 0 0 0 0 0 0 0 0 0 0 0 0 0 0 0 0 127 0"
                result="hardAlpha" />
            <feOffset dy="4" />
            <feGaussianBlur stdDeviation="2" />
            <feComposite in2="hardAlpha" operator="out" />
            <feColorMatrix type="matrix" values="0 0 0 0 0 0 0 0 0 0 0 0 0 0 0 0 0 0 0.25 0" />
            <feBlend mode="normal" in2="BackgroundImageFix" result="effect1_dropShadow_29_4" />
            <feBlend mode="normal" in="SourceGraphic" in2="effect1_dropShadow_29_4" result="shape" />
        </filter>
        <linearGradient id="paint0_linear_29_4" x1="512" y1="22" x2="512" y2="1002" gradientUnits="userSpaceOnUse">
            <stop stop-color="#8B6F47" />
            <stop offset="1" stop-color="#6F4E37" />
        </linearGradient>
    </defs>
</svg>
